{
	"asset":{
		"generator":"Khronos glTF Blender I/O v4.0.44",
		"version":"2.0"
	},
	"extensionsUsed":[
		"KHR_materials_specular",
		"KHR_materials_ior"
	],
	"scene":0,
	"scenes":[
		{
			"name":"Scene",
			"nodes":[
				0
			]
		}
	],
	"nodes":[
		{
			"mesh":0,
			"name":"usdz",
			"rotation":[
				0.6342458724975586,
				-0.1020548939704895,
				-0.03943324089050293,
				0.7653509378433228
			],
			"scale":[
				13.499189376831055,
				13.499186515808105,
				13.499186515808105
			],
			"translation":[
				0.228501558303833,
				2.5753731727600098,
				2.0177652835845947
			]
		}
	],
	"materials":[
		{
			"doubleSided":true,
			"extensions":{
				"KHR_materials_specular":{
					"specularFactor":0
				},
				"KHR_materials_ior":{
					"ior":1.4500000476837158
				}
			},
			"name":"material_1",
			"pbrMetallicRoughness":{
				"baseColorTexture":{
					"index":0
				},
				"metallicFactor":0
			}
		},
		{
			"doubleSided":true,
			"extensions":{
				"KHR_materials_specular":{
					"specularFactor":0
				},
				"KHR_materials_ior":{
					"ior":1.4500000476837158
				}
			},
			"name":"material_1.001",
			"pbrMetallicRoughness":{
				"baseColorTexture":{
					"index":1
				},
				"metallicFactor":0
			}
		},
		{
			"doubleSided":true,
			"extensions":{
				"KHR_materials_specular":{
					"specularFactor":0
				},
				"KHR_materials_ior":{
					"ior":1.4500000476837158
				}
			},
			"name":"material_1.002",
			"pbrMetallicRoughness":{
				"baseColorTexture":{
					"index":2
				},
				"metallicFactor":0
			}
		}
	],
	"meshes":[
		{
			"name":"usdz",
			"primitives":[
				{
					"attributes":{
						"POSITION":0,
						"NORMAL":1,
						"TEXCOORD_0":2
					},
					"indices":3,
					"material":0
				},
				{
					"attributes":{
						"POSITION":4,
						"NORMAL":5,
						"TEXCOORD_0":6
					},
					"indices":7,
					"material":1
				},
				{
					"attributes":{
						"POSITION":8,
						"NORMAL":9,
						"TEXCOORD_0":10
					},
					"indices":11,
					"material":2
				}
			]
		}
	],
	"textures":[
		{
			"sampler":0,
			"source":0
		},
		{
			"sampler":0,
			"source":1
		},
		{
			"sampler":0,
			"source":2
		}
	],
	"images":[
		{
			"mimeType":"image/png",
			"name":"baked_mesh_tex0",
			"uri":"baked_mesh_tex0.png"
		},
		{
			"mimeType":"image/png",
			"name":"baked_mesh_tex0",
			"uri":"baked_mesh_tex0-1.png"
		},
		{
			"mimeType":"image/png",
			"name":"baked_mesh_tex0",
			"uri":"baked_mesh_tex0-2.png"
		}
	],
	"accessors":[
		{
			"bufferView":0,
			"componentType":5126,
			"count":17941,
			"max":[
				0.11776991188526154,
				0.2351440042257309,
				0.1652735024690628
			],
			"min":[
				-0.10903999954462051,
				-0.23119600117206573,
				-0.16413499414920807
			],
			"type":"VEC3"
		},
		{
			"bufferView":1,
			"componentType":5126,
			"count":17941,
			"type":"VEC3"
		},
		{
			"bufferView":2,
			"componentType":5126,
			"count":17941,
			"type":"VEC2"
		},
		{
			"bufferView":3,
			"componentType":5123,
			"count":95499,
			"type":"SCALAR"
		},
		{
			"bufferView":4,
			"componentType":5126,
			"count":50427,
			"max":[
				0.11766931414604187,
				0.2362661063671112,
				0.16616609692573547
			],
			"min":[
				-0.10639875382184982,
				-0.21794839203357697,
				-0.028446875512599945
			],
			"type":"VEC3"
		},
		{
			"bufferView":5,
			"componentType":5126,
			"count":50427,
			"type":"VEC3"
		},
		{
			"bufferView":6,
			"componentType":5126,
			"count":50427,
			"type":"VEC2"
		},
		{
			"bufferView":7,
			"componentType":5123,
			"count":291630,
			"type":"SCALAR"
		},
		{
			"bufferView":8,
			"componentType":5126,
			"count":13294,
			"max":[
				0.08543174713850021,
				0.16099092364311218,
				0.12699289619922638
			],
			"min":[
				-0.09283781796693802,
				-0.19861316680908203,
				-0.06433788686990738
			],
			"type":"VEC3"
		},
		{
			"bufferView":9,
			"componentType":5126,
			"count":13294,
			"type":"VEC3"
		},
		{
			"bufferView":10,
			"componentType":5126,
			"count":13294,
			"type":"VEC2"
		},
		{
			"bufferView":11,
			"componentType":5123,
			"count":75000,
			"type":"SCALAR"
		}
	],
	"bufferViews":[
		{
			"buffer":0,
			"byteLength":215292,
			"byteOffset":0,
			"target":34962
		},
		{
			"buffer":0,
			"byteLength":215292,
			"byteOffset":215292,
			"target":34962
		},
		{
			"buffer":0,
			"byteLength":143528,
			"byteOffset":430584,
			"target":34962
		},
		{
			"buffer":0,
			"byteLength":190998,
			"byteOffset":574112,
			"target":34963
		},
		{
			"buffer":0,
			"byteLength":605124,
			"byteOffset":765112,
			"target":34962
		},
		{
			"buffer":0,
			"byteLength":605124,
			"byteOffset":1370236,
			"target":34962
		},
		{
			"buffer":0,
			"byteLength":403416,
			"byteOffset":1975360,
			"target":34962
		},
		{
			"buffer":0,
			"byteLength":583260,
			"byteOffset":2378776,
			"target":34963
		},
		{
			"buffer":0,
			"byteLength":159528,
			"byteOffset":2962036,
			"target":34962
		},
		{
			"buffer":0,
			"byteLength":159528,
			"byteOffset":3121564,
			"target":34962
		},
		{
			"buffer":0,
			"byteLength":106352,
			"byteOffset":3281092,
			"target":34962
		},
		{
			"buffer":0,
			"byteLength":150000,
			"byteOffset":3387444,
			"target":34963
		}
	],
	"samplers":[
		{
			"magFilter":9729,
			"minFilter":9987
		}
	],
	"buffers":[
		{
			"byteLength":3537444,
			"uri":"ultraboost.bin"
		}
	]
}
